{"title":"Kali Salwaar (2002) 1CD DVDRip XviD 2CH AC3","uid":8076828,"size":652557038,"categoryP":"video","categoryS":"movies","magnet":"?xt=urn:btih:6a7a6632c6d24b0b532c837c603ad63cc68791ee&amp;dn=Kali+Salwaar+%282002%29+1CD+DVDRip+XviD+2CH+AC3&amp;tr=udp%3A%2F%2Ftracker.openbittorrent.com%3A80&amp;tr=udp%3A%2F%2Fopen.demonii.com%3A1337&amp;tr=udp%3A%2F%2Ftracker.coppersurfer.tk%3A6969&amp;tr=udp%3A%2F%2Fexodus.desync.com%3A6969","seeders":1,"leechers":0,"uploader":"shaan666","files":-1,"time":1359397316,"description":"Kali Salwaar (2002)\n &lt;a href=&quot;\nhttp://www.shotpix.com/images/74946284526336412276.jpg&quot; rel=&quot;nofollow&quot; target=&quot;_NEW&quot;&gt;\nhttp://www.shotpix.com/images/74946284526336412276.jpg&lt;/a&gt;\n\n\nINFO\n\n[code]Rip Information\n\n\nFormat                                   : AVI\nFormat/Info                              : Audio Video Interleave\nFile size                                : 611 MiB\nDuration                                 : 2h 3mn\nOverall bit rate                         : 694 Kbps\n\n[/code]\n\n[code]Video\n\n\nCodec ID                                 : XVID\nCodec ID/Hint                            : XviD\nDuration                                 : 2h 3mn\nBit rate                                 : 557 Kbps\nWidth                                    : 688 pixels\nHeight                                   : 400 pixels\nDisplay aspect ratio                     : 16:9\nFrame rate                               : 29.970 fps\nColor space                              : YUV\nChroma subsampling                       : 4:2:0\nBit depth                                : 8 bits\nScan type                                : Progressive\nCompression mode                         : Lossy\nBits/(Pixel*Frame)                       : 0.068\nStream size                              : 490 MiB (80%)\nWriting library                          : XviD 1.2.1 (UTC 2008-12-04)\n\n[/code]\n\n\n[code]Audio\n\n\nFormat                                   : AC-3\nFormat/Info                              : Audio Coding 3\nMode extension                           : CM (complete main)\nFormat settings, Endianness              : Big\nCodec ID                                 : 2000\nDuration                                 : 2h 3mn\nBit rate mode                            : Constant\nBit rate                                 : 128 Kbps\nChannel(s)                               : 2 channels\nChannel positions                        : Front: L R\nSampling rate                            : 48.0 KHz\nBit depth                                : 16 bits\nCompression mode                         : Lossy\nStream size                              : 113 MiB (18%)\n\n[/code]\n\n\n\nSCREENSHOTS\n &lt;a href=&quot;\nhttp://www.shotpix.com/images/91877920913398245644.png&quot; rel=&quot;nofollow&quot; target=&quot;_NEW&quot;&gt;\nhttp://www.shotpix.com/images/91877920913398245644.png&lt;/a&gt;\n &lt;a href=&quot;\nhttp://www.shotpix.com/images/92701472205752043244.png&quot; rel=&quot;nofollow&quot; target=&quot;_NEW&quot;&gt;\nhttp://www.shotpix.com/images/92701472205752043244.png&lt;/a&gt;\n &lt;a href=&quot;\nhttp://www.shotpix.com/images/73807521207859145740.png&quot; rel=&quot;nofollow&quot; target=&quot;_NEW&quot;&gt;\nhttp://www.shotpix.com/images/73807521207859145740.png&lt;/a&gt;\n &lt;a href=&quot;\nhttp://www.shotpix.com/images/54922680621768058543.png&quot; rel=&quot;nofollow&quot; target=&quot;_NEW&quot;&gt;\nhttp://www.shotpix.com/images/54922680621768058543.png&lt;/a&gt;\n &lt;a href=&quot;\nhttp://www.shotpix.com/images/23166996716360497773.png&quot; rel=&quot;nofollow&quot; target=&quot;_NEW&quot;&gt;\nhttp://www.shotpix.com/images/23166996716360497773.png&lt;/a&gt;\n &lt;a href=&quot;\nhttp://www.shotpix.com/images/43202738333423681261.png&quot; rel=&quot;nofollow&quot; target=&quot;_NEW&quot;&gt;\nhttp://www.shotpix.com/images/43202738333423681261.png&lt;/a&gt;\n &lt;a href=&quot;\nhttp://www.shotpix.com/images/74394807911465819395.png&quot; rel=&quot;nofollow&quot; target=&quot;_NEW&quot;&gt;\nhttp://www.shotpix.com/images/74394807911465819395.png&lt;/a&gt;\n &lt;a href=&quot;\nhttp://www.shotpix.com/images/26876316257078634148.png&quot; rel=&quot;nofollow&quot; target=&quot;_NEW&quot;&gt;\nhttp://www.shotpix.com/images/26876316257078634148.png&lt;/a&gt;\n &lt;a href=&quot;\nhttp://www.shotpix.com/images/75750170788359099522.png&quot; rel=&quot;nofollow&quot; target=&quot;_NEW&quot;&gt;\nhttp://www.shotpix.com/images/75750170788359099522.png&lt;/a&gt;\n &lt;a href=&quot;\nhttp://www.shotpix.com/images/66012140280964447880.png&quot; rel=&quot;nofollow&quot; target=&quot;_NEW&quot;&gt;\nhttp://www.shotpix.com/images/66012140280964447880.png&lt;/a&gt;\n &lt;a href=&quot;\nhttp://www.shotpix.com/images/12139111416692150154.png&quot; rel=&quot;nofollow&quot; target=&quot;_NEW&quot;&gt;\nhttp://www.shotpix.com/images/12139111416692150154.png&lt;/a&gt;","torrent":{"xt":"urn:btih:6a7a6632c6d24b0b532c837c603ad63cc68791ee","amp;dn":"Kali+Salwaar+%282002%29+1CD+DVDRip+XviD+2CH+AC3","amp;tr":["udp%3A%2F%2Ftracker.openbittorrent.com%3A80","udp%3A%2F%2Fopen.demonii.com%3A1337","udp%3A%2F%2Ftracker.coppersurfer.tk%3A6969","udp%3A%2F%2Fexodus.desync.com%3A6969"],"infoHash":"6a7a6632c6d24b0b532c837c603ad63cc68791ee","infoHashBuffer":{"type":"Buffer","data":[106,122,102,50,198,210,75,11,83,44,131,124,96,58,214,60,198,135,145,238]},"announce":[],"urlList":[]}}